<svg xmlns="http://www.w3.org/2000/svg" style="display:none">
    <symbol id="light-bulb" viewBox="0 0 24 24" fill="currentColor">
        <path d="M12 .75a8.25 8.25 0 0 0-4.135 15.39c.686.398 1.115 1.008 1.134 1.623a.75.75 0 0 0 .577.706c.352.083.71.148 1.074.195.323.041.6-.218.6-.544v-4.661a6.714 6.714 0 0 1-.937-.171.75.75 0 1 1 .374-1.453 5.261 5.261 0 0 0 2.626 0 .75.75 0 1 1 .374 1.452 6.712 6.712 0 0 1-.937.172v4.66c0 .327.277.586.6.545.364-.047.722-.112 1.074-.195a.75.75 0 0 0 .577-.706c.02-.615.448-1.225 1.134-1.623A8.25 8.25 0 0 0 12 .75Z"/>
        <path d="M9.013 19.9a.75.75 0 0 1 .877-.597 11.319 11.319 0 0 0 4.22 0 .75.75 0 1 1 .28 1.473 12.819 12.819 0 0 1-4.78 0 .75.75 0 0 1-.597-.876ZM9.754 22.344a.75.75 0 0 1 .824-.668 13.682 13.682 0 0 0 2.844 0 .75.75 0 1 1 .156 1.492 15.156 15.156 0 0 1-3.156 0 .75.75 0 0 1-.668-.824Z"/>
    </symbol>
    <symbol id="map-pin" viewBox="0 0 24 24">
        <g fill="none" stroke="currentColor" stroke-width="1.5" stroke-linecap="round" stroke-linejoin="round">
            <path d="M15 10.5a3 3 0 1 1-6 0 3 3 0 0 1 6 0Z"/>
            <path d="M19.5 10.5c0 7.142-7.5 11.25-7.5 11.25S4.5 17.642 4.5 10.5a7.5 7.5 0 1 1 15 0Z"/>
        </g>
    </symbol>
    <symbol id="clipboard-check" viewBox="0 0 24 24" fill="currentColor">
        <path d="M7.502 6h7.128A3.375 3.375 0 0 1 18 9.375v9.375a3 3 0 0 0 3-3V6.108c0-1.505-1.125-2.811-2.664-2.94a48.972 48.972 0 0 0-.673-.05A3 3 0 0 0 15 1.5h-1.5a3 3 0 0 0-2.663 1.618c-.225.015-.45.032-.673.05C8.662 3.295 7.554 4.542 7.502 6ZM13.5 3A1.5 1.5 0 0 0 12 4.5h4.5A1.5 1.5 0 0 0 15 3h-1.5Z"/>
        <path d="M3 9.375C3 8.339 3.84 7.5 4.875 7.5h9.75c1.036 0 1.875.84 1.875 1.875v11.25c0 1.035-.84 1.875-1.875 1.875h-9.75A1.875 1.875 0 0 1 3 20.625V9.375Zm9.586 4.594a.75.75 0 0 0-1.172-.938l-2.476 3.096-.908-.907a.75.75 0 0 0-1.06 1.06l1.5 1.5a.75.75 0 0 0 1.116-.062l3-3.75Z"/>
    </symbol>
    <symbol id="rocket-launch" viewBox="0 0 24 24" fill="currentColor">
        <path d="M9.315 7.584C12.195 3.883 16.695 1.5 21.75 1.5a.75.75 0 0 1 .75.75c0 5.056-2.383 9.555-6.084 12.436A6.75 6.75 0 0 1 9.75 22.5a.75.75 0 0 1-.75-.75v-4.131A15.838 15.838 0 0 1 6.382 15H2.25a.75.75 0 0 1-.75-.75 6.75 6.75 0 0 1 7.815-6.666ZM15 6.75a2.25 2.25 0 1 0 0 4.5 2.25 2.25 0 0 0 0-4.5Z"/>
        <path d="M5.26 17.242a.75.75 0 1 0-.897-1.203 5.243 5.243 0 0 0-2.05 5.022.75.75 0 0 0 .625.627 5.243 5.243 0 0 0 5.022-2.051.75.75 0 1 0-1.202-.897 3.744 3.744 0 0 1-3.008 1.51c0-1.23.592-2.323 1.51-3.008Z"/>
    </symbol>
<symbol id="tv" viewBox="0 0 24 24" fill="currentColor">
        <path d="M19.5 6h-15v9h15V6Z"/>
        <path d="M3.375 3C2.339 3 1.5 3.84 1.5 4.875v11.25C1.5 17.16 2.34 18 3.375 18H9.75v1.5H6A.75.75 0 0 0 6 21h12a.75.75 0 0 0 0-1.5h-3.75V18h6.375c1.035 0 1.875-.84 1.875-1.875V4.875C22.5 3.839 21.66 3 20.625 3H3.375Zm0 13.5h17.25a.375.375 0 0 0 .375-.375V4.875a.375.375 0 0 0-.375-.375H3.375A.375.375 0 0 0 3 4.875v11.25c0 .207.168.375.375.375Z"/>
    </symbol>
    <symbol id="bars-3" viewBox="0 0 24 24">
        <g fill="none" stroke="currentColor" stroke-width="1.5" stroke-linecap="round" stroke-linejoin="round">
            <path d="M3.75 6.75h16.5M3.75 12h16.5m-16.5 5.25h16.5"/>
        </g>
    </symbol>
    <symbol id="light-bulb-outline" viewBox="0 0 24 24">
        <g fill="none" stroke="currentColor" stroke-width="1.5" stroke-linecap="round" stroke-linejoin="round">
            <path d="M12 18v-5.25m0 0a6.01 6.01 0 0 0 1.5-.189m-1.5.189a6.01 6.01 0 0 1-1.5-.189m3.75 7.478a12.06 12.06 0 0 1-4.5 0m3.75 2.383a14.406 14.406 0 0 1-3 0M14.25 18v-.192c0-.983.658-1.823 1.508-2.316a7.5 7.5 0 1 0-7.517 0c.85.493 1.509 1.333 1.509 2.316V18"/>
        </g>
    </symbol>
    <symbol id="chevron-down" viewBox="0 0 20 20" fill="currentColor">
        <path d="M5.22 8.22a.75.75 0 0 1 1.06 0L10 11.94l3.72-3.72a.75.75 0 1 1 1.06 1.06l-4.25 4.25a.75.75 0 0 1-1.06 0L5.22 9.28a.75.75 0 0 1 0-1.06Z"/>
    </symbol>
    <symbol id="arrow-path" viewBox="0 0 24 24" fill="currentColor">
        <path d="M4.755 10.059a7.5 7.5 0 0 1 12.548-3.364l1.903 1.903h-3.183a.75.75 0 1 0 0 1.5h4.992a.75.75 0 0 0 .75-.75V4.356a.75.75 0 0 0-1.5 0v3.18l-1.9-1.9A9 9 0 0 0 3.306 9.67a.75.75 0 1 0 1.45.388Zm15.408 3.352a.75.75 0 0 0-.919.53 7.5 7.5 0 0 1-12.548 3.364l-1.902-1.903h3.183a.75.75 0 0 0 0-1.5H2.984a.75.75 0 0 0-.75.75v4.992a.75.75 0 0 0 1.5 0v-3.18l1.9 1.9a9 9 0 0 0 15.059-4.035.75.75 0 0 0-.53-.918Z"/>
    </symbol>
    <symbol id="speaker-wave" viewBox="0 0 24 24" fill="currentColor">
        <path d="M13.5 4.06c0-1.336-1.616-2.005-2.56-1.06l-4.5 4.5H4.508c-1.141 0-2.318.664-2.66 1.905A9.76 9.76 0 0 0 1.5 12c0 .898.121 1.768.35 2.595.341 1.24 1.518 1.905 2.659 1.905h1.93l4.5 4.5c.945.945 2.561.276 2.561-1.06V4.06ZM18.584 5.106a.75.75 0 0 1 1.06 0c3.808 3.807 3.808 9.98 0 13.788a.75.75 0 0 1-1.06-1.06 8.25 8.25 0 0 0 0-11.668.75.75 0 0 1 0-1.06Z"/>
        <path d="M15.932 7.757a.75.75 0 0 1 1.061 0 6 6 0 0 1 0 8.486.75.75 0 0 1-1.06-1.061 4.5 4.5 0 0 0 0-6.364.75.75 0 0 1 0-1.06Z"/>
    </symbol>
    <symbol id="calendar" viewBox="0 0 24 24" fill="currentColor">
        <path d="M12.75 12.75a.75.75 0 1 1-1.5 0 .75.75 0 0 1 1.5 0ZM7.5 15.75a.75.75 0 1 0 0-1.5.75.75 0 0 0 0 1.5ZM8.25 17.25a.75.75 0 1 1-1.5 0 .75.75 0 0 1 1.5 0ZM9.75 15.75a.75.75 0 1 0 0-1.5.75.75 0 0 0 0 1.5ZM10.5 17.25a.75.75 0 1 1-1.5 0 .75.75 0 0 1 1.5 0ZM12 15.75a.75.75 0 1 0 0-1.5.75.75 0 0 0 0 1.5ZM12.75 17.25a.75.75 0 1 1-1.5 0 .75.75 0 0 1 1.5 0ZM14.25 15.75a.75.75 0 1 0 0-1.5.75.75 0 0 0 0 1.5ZM15 17.25a.75.75 0 1 1-1.5 0 .75.75 0 0 1 1.5 0ZM16.5 15.75a.75.75 0 1 0 0-1.5.75.75 0 0 0 0 1.5ZM15 12.75a.75.75 0 1 1-1.5 0 .75.75 0 0 1 1.5 0ZM16.5 13.5a.75.75 0 1 0 0-1.5.75.75 0 0 0 0 1.5Z"/>
        <path fill-rule="evenodd" d="M6.75 2.25A.75.75 0 0 1 7.5 3v1.5h9V3A.75.75 0 0 1 18 3v1.5h.75a3 3 0 0 1 3 3v11.25a3 3 0 0 1-3 3H5.25a3 3 0 0 1-3-3V7.5a3 3 0 0 1 3-3H6V3a.75.75 0 0 1 .75-.75Zm13.5 9a1.5 1.5 0 0 0-1.5-1.5H5.25a1.5 1.5 0 0 0-1.5 1.5v7.5a1.5 1.5 0 0 0 1.5 1.5h13.5a1.5 1.5 0 0 0 1.5-1.5v-7.5Z" clip-rule="evenodd"/>
    </symbol>
    <symbol id="beaker" viewBox="0 0 24 24" fill="currentColor">
        <path fill-rule="evenodd" clip-rule="evenodd" d="M10.5 3.798v5.02a3 3 0 0 1-.879 2.121l-2.377 2.377a9.845 9.845 0 0 1 5.091 1.013 8.315 8.315 0 0 0 5.713.636l.285-.071-3.954-3.955a3 3 0 0 1-.879-2.121v-5.02a23.614 23.614 0 0 0-3 0Zm4.5.138a.75.75 0 0 0 .093-1.495A24.837 24.837 0 0 0 12 2.25a25.048 25.048 0 0 0-3.093.191A.75.75 0 0 0 9 3.936v4.882a1.5 1.5 0 0 1-.44 1.06l-6.293 6.294c-1.62 1.621-.903 4.475 1.471 4.88 2.686.46 5.447.698 8.262.698 2.816 0 5.576-.239 8.262-.697 2.373-.406 3.092-3.26 1.47-4.881L15.44 9.879A1.5 1.5 0 0 1 15 8.818V3.936Z"/>
    </symbol>
</svg>
